<mxfile host="app.diagrams.net" modified="2023-07-30T18:50:39.684Z" agent="Mozilla/5.0 (Macintosh; Intel Mac OS X 10_15_7) AppleWebKit/605.1.15 (KHTML, like Gecko) Version/16.5.2 Safari/605.1.15" etag="ouySPVRyasvuY8Z3i6xf" version="21.6.6" type="device">
  <diagram id="C5RBs43oDa-KdzZeNtuy" name="Page-1">
    <mxGraphModel dx="954" dy="601" grid="1" gridSize="10" guides="1" tooltips="1" connect="1" arrows="1" fold="1" page="1" pageScale="1" pageWidth="827" pageHeight="1169" math="0" shadow="0">
      <root>
        <mxCell id="WIyWlLk6GJQsqaUBKTNV-0" />
        <mxCell id="WIyWlLk6GJQsqaUBKTNV-1" parent="WIyWlLk6GJQsqaUBKTNV-0" />
        <mxCell id="U4N--n8lzwMHP0-4tXsz-0" value="Menu.csv" style="rounded=1;whiteSpace=wrap;html=1;" vertex="1" parent="WIyWlLk6GJQsqaUBKTNV-1">
          <mxGeometry x="640" y="10" width="80" height="30" as="geometry" />
        </mxCell>
        <mxCell id="U4N--n8lzwMHP0-4tXsz-1" value="MenuPage.csv" style="rounded=1;whiteSpace=wrap;html=1;" vertex="1" parent="WIyWlLk6GJQsqaUBKTNV-1">
          <mxGeometry x="80" y="10" width="90" height="30" as="geometry" />
        </mxCell>
        <mxCell id="U4N--n8lzwMHP0-4tXsz-2" value="MenuItem.csv" style="rounded=1;whiteSpace=wrap;html=1;" vertex="1" parent="WIyWlLk6GJQsqaUBKTNV-1">
          <mxGeometry x="295" y="10" width="90" height="30" as="geometry" />
        </mxCell>
        <mxCell id="U4N--n8lzwMHP0-4tXsz-3" value="Dish.csv" style="rounded=1;whiteSpace=wrap;html=1;" vertex="1" parent="WIyWlLk6GJQsqaUBKTNV-1">
          <mxGeometry x="490" y="10" width="90" height="30" as="geometry" />
        </mxCell>
        <mxCell id="U4N--n8lzwMHP0-4tXsz-4" value="Pythonscript" style="rounded=1;whiteSpace=wrap;html=1;" vertex="1" parent="WIyWlLk6GJQsqaUBKTNV-1">
          <mxGeometry x="360" y="60" width="150" height="30" as="geometry" />
        </mxCell>
        <mxCell id="U4N--n8lzwMHP0-4tXsz-5" value="" style="endArrow=classic;html=1;rounded=0;exitX=0.433;exitY=1.033;exitDx=0;exitDy=0;exitPerimeter=0;entryX=0;entryY=0.25;entryDx=0;entryDy=0;" edge="1" parent="WIyWlLk6GJQsqaUBKTNV-1" source="U4N--n8lzwMHP0-4tXsz-1" target="U4N--n8lzwMHP0-4tXsz-4">
          <mxGeometry width="50" height="50" relative="1" as="geometry">
            <mxPoint x="390" y="300" as="sourcePoint" />
            <mxPoint x="440" y="250" as="targetPoint" />
          </mxGeometry>
        </mxCell>
        <mxCell id="U4N--n8lzwMHP0-4tXsz-7" value="MenuPage_stage1.csv" style="rounded=1;whiteSpace=wrap;html=1;" vertex="1" parent="WIyWlLk6GJQsqaUBKTNV-1">
          <mxGeometry x="90" y="170" width="130" height="30" as="geometry" />
        </mxCell>
        <mxCell id="U4N--n8lzwMHP0-4tXsz-8" value="MenuItem_stage1.csv" style="rounded=1;whiteSpace=wrap;html=1;" vertex="1" parent="WIyWlLk6GJQsqaUBKTNV-1">
          <mxGeometry x="280" y="170" width="120" height="30" as="geometry" />
        </mxCell>
        <mxCell id="U4N--n8lzwMHP0-4tXsz-9" value="Dish_stage1.csv" style="rounded=1;whiteSpace=wrap;html=1;" vertex="1" parent="WIyWlLk6GJQsqaUBKTNV-1">
          <mxGeometry x="490" y="170" width="90" height="30" as="geometry" />
        </mxCell>
        <mxCell id="U4N--n8lzwMHP0-4tXsz-10" value="Menu_stage1.csv" style="rounded=1;whiteSpace=wrap;html=1;" vertex="1" parent="WIyWlLk6GJQsqaUBKTNV-1">
          <mxGeometry x="640" y="170" width="100" height="30" as="geometry" />
        </mxCell>
        <mxCell id="U4N--n8lzwMHP0-4tXsz-11" value="OpenRefine Sequence" style="rounded=1;whiteSpace=wrap;html=1;" vertex="1" parent="WIyWlLk6GJQsqaUBKTNV-1">
          <mxGeometry x="360" y="240" width="150" height="30" as="geometry" />
        </mxCell>
        <mxCell id="U4N--n8lzwMHP0-4tXsz-12" value="MenuPage_clean.csv" style="rounded=1;whiteSpace=wrap;html=1;" vertex="1" parent="WIyWlLk6GJQsqaUBKTNV-1">
          <mxGeometry x="70" y="360" width="130" height="30" as="geometry" />
        </mxCell>
        <mxCell id="U4N--n8lzwMHP0-4tXsz-14" value="MenuItem_clean.csv" style="rounded=1;whiteSpace=wrap;html=1;" vertex="1" parent="WIyWlLk6GJQsqaUBKTNV-1">
          <mxGeometry x="280" y="360" width="120" height="30" as="geometry" />
        </mxCell>
        <mxCell id="U4N--n8lzwMHP0-4tXsz-15" value="Dish_clean.csv" style="rounded=1;whiteSpace=wrap;html=1;" vertex="1" parent="WIyWlLk6GJQsqaUBKTNV-1">
          <mxGeometry x="510" y="360" width="90" height="30" as="geometry" />
        </mxCell>
        <mxCell id="U4N--n8lzwMHP0-4tXsz-16" value="Menu_clean.csv" style="rounded=1;whiteSpace=wrap;html=1;" vertex="1" parent="WIyWlLk6GJQsqaUBKTNV-1">
          <mxGeometry x="660" y="360" width="100" height="30" as="geometry" />
        </mxCell>
        <mxCell id="U4N--n8lzwMHP0-4tXsz-17" value="SQLite Sequence" style="rounded=1;whiteSpace=wrap;html=1;" vertex="1" parent="WIyWlLk6GJQsqaUBKTNV-1">
          <mxGeometry x="370" y="420" width="150" height="30" as="geometry" />
        </mxCell>
        <mxCell id="U4N--n8lzwMHP0-4tXsz-18" value="load data into respective tables&lt;br&gt;check for IC violations&lt;br&gt;Clean if necessary" style="rounded=0;whiteSpace=wrap;html=1;" vertex="1" parent="WIyWlLk6GJQsqaUBKTNV-1">
          <mxGeometry x="352.5" y="470" width="185" height="50" as="geometry" />
        </mxCell>
        <mxCell id="U4N--n8lzwMHP0-4tXsz-19" value="Clean data based on python script on Jupyter Notebook" style="rounded=0;whiteSpace=wrap;html=1;" vertex="1" parent="WIyWlLk6GJQsqaUBKTNV-1">
          <mxGeometry x="342.5" y="110" width="207.5" height="40" as="geometry" />
        </mxCell>
        <mxCell id="U4N--n8lzwMHP0-4tXsz-20" value="MenuPage_clean.csv" style="rounded=1;whiteSpace=wrap;html=1;" vertex="1" parent="WIyWlLk6GJQsqaUBKTNV-1">
          <mxGeometry x="80" y="560" width="130" height="30" as="geometry" />
        </mxCell>
        <mxCell id="U4N--n8lzwMHP0-4tXsz-21" value="MenuItem_clean.csv" style="rounded=1;whiteSpace=wrap;html=1;" vertex="1" parent="WIyWlLk6GJQsqaUBKTNV-1">
          <mxGeometry x="250" y="560" width="120" height="30" as="geometry" />
        </mxCell>
        <mxCell id="U4N--n8lzwMHP0-4tXsz-22" value="Dish_clean.csv" style="rounded=1;whiteSpace=wrap;html=1;" vertex="1" parent="WIyWlLk6GJQsqaUBKTNV-1">
          <mxGeometry x="500" y="560" width="90" height="30" as="geometry" />
        </mxCell>
        <mxCell id="U4N--n8lzwMHP0-4tXsz-23" value="Menu_clean.csv" style="rounded=1;whiteSpace=wrap;html=1;" vertex="1" parent="WIyWlLk6GJQsqaUBKTNV-1">
          <mxGeometry x="670" y="560" width="100" height="30" as="geometry" />
        </mxCell>
        <mxCell id="U4N--n8lzwMHP0-4tXsz-24" value="upload data and clean" style="rounded=0;whiteSpace=wrap;html=1;" vertex="1" parent="WIyWlLk6GJQsqaUBKTNV-1">
          <mxGeometry x="342.5" y="290" width="185" height="50" as="geometry" />
        </mxCell>
        <mxCell id="U4N--n8lzwMHP0-4tXsz-25" value="" style="endArrow=classic;html=1;rounded=0;" edge="1" parent="WIyWlLk6GJQsqaUBKTNV-1" source="U4N--n8lzwMHP0-4tXsz-2" target="U4N--n8lzwMHP0-4tXsz-4">
          <mxGeometry width="50" height="50" relative="1" as="geometry">
            <mxPoint x="390" y="320" as="sourcePoint" />
            <mxPoint x="440" y="270" as="targetPoint" />
          </mxGeometry>
        </mxCell>
        <mxCell id="U4N--n8lzwMHP0-4tXsz-26" value="" style="endArrow=classic;html=1;rounded=0;exitX=0.5;exitY=1;exitDx=0;exitDy=0;entryX=0.75;entryY=0;entryDx=0;entryDy=0;" edge="1" parent="WIyWlLk6GJQsqaUBKTNV-1" source="U4N--n8lzwMHP0-4tXsz-3" target="U4N--n8lzwMHP0-4tXsz-4">
          <mxGeometry width="50" height="50" relative="1" as="geometry">
            <mxPoint x="390" y="320" as="sourcePoint" />
            <mxPoint x="440" y="270" as="targetPoint" />
          </mxGeometry>
        </mxCell>
        <mxCell id="U4N--n8lzwMHP0-4tXsz-27" value="" style="endArrow=classic;html=1;rounded=0;exitX=0.425;exitY=1.1;exitDx=0;exitDy=0;exitPerimeter=0;entryX=1;entryY=0.5;entryDx=0;entryDy=0;" edge="1" parent="WIyWlLk6GJQsqaUBKTNV-1" source="U4N--n8lzwMHP0-4tXsz-0" target="U4N--n8lzwMHP0-4tXsz-4">
          <mxGeometry width="50" height="50" relative="1" as="geometry">
            <mxPoint x="390" y="320" as="sourcePoint" />
            <mxPoint x="440" y="270" as="targetPoint" />
          </mxGeometry>
        </mxCell>
        <mxCell id="U4N--n8lzwMHP0-4tXsz-28" value="" style="endArrow=classic;html=1;rounded=0;exitX=0.447;exitY=1.1;exitDx=0;exitDy=0;exitPerimeter=0;entryX=0.388;entryY=-0.025;entryDx=0;entryDy=0;entryPerimeter=0;" edge="1" parent="WIyWlLk6GJQsqaUBKTNV-1" source="U4N--n8lzwMHP0-4tXsz-4" target="U4N--n8lzwMHP0-4tXsz-19">
          <mxGeometry width="50" height="50" relative="1" as="geometry">
            <mxPoint x="390" y="320" as="sourcePoint" />
            <mxPoint x="440" y="270" as="targetPoint" />
          </mxGeometry>
        </mxCell>
        <mxCell id="U4N--n8lzwMHP0-4tXsz-29" value="" style="endArrow=classic;html=1;rounded=0;" edge="1" parent="WIyWlLk6GJQsqaUBKTNV-1">
          <mxGeometry width="50" height="50" relative="1" as="geometry">
            <mxPoint x="450" y="110" as="sourcePoint" />
            <mxPoint x="446" y="90" as="targetPoint" />
          </mxGeometry>
        </mxCell>
        <mxCell id="U4N--n8lzwMHP0-4tXsz-30" value="" style="endArrow=classic;html=1;rounded=0;entryX=0.5;entryY=0;entryDx=0;entryDy=0;exitX=0;exitY=1;exitDx=0;exitDy=0;" edge="1" parent="WIyWlLk6GJQsqaUBKTNV-1" source="U4N--n8lzwMHP0-4tXsz-19" target="U4N--n8lzwMHP0-4tXsz-7">
          <mxGeometry width="50" height="50" relative="1" as="geometry">
            <mxPoint x="340" y="150" as="sourcePoint" />
            <mxPoint x="440" y="270" as="targetPoint" />
          </mxGeometry>
        </mxCell>
        <mxCell id="U4N--n8lzwMHP0-4tXsz-31" value="" style="endArrow=classic;html=1;rounded=0;exitX=0.25;exitY=1;exitDx=0;exitDy=0;entryX=0.5;entryY=0;entryDx=0;entryDy=0;" edge="1" parent="WIyWlLk6GJQsqaUBKTNV-1" source="U4N--n8lzwMHP0-4tXsz-19" target="U4N--n8lzwMHP0-4tXsz-8">
          <mxGeometry width="50" height="50" relative="1" as="geometry">
            <mxPoint x="390" y="320" as="sourcePoint" />
            <mxPoint x="440" y="270" as="targetPoint" />
          </mxGeometry>
        </mxCell>
        <mxCell id="U4N--n8lzwMHP0-4tXsz-32" value="" style="endArrow=classic;html=1;rounded=0;exitX=0.706;exitY=1;exitDx=0;exitDy=0;exitPerimeter=0;entryX=0.5;entryY=0;entryDx=0;entryDy=0;" edge="1" parent="WIyWlLk6GJQsqaUBKTNV-1" source="U4N--n8lzwMHP0-4tXsz-19" target="U4N--n8lzwMHP0-4tXsz-9">
          <mxGeometry width="50" height="50" relative="1" as="geometry">
            <mxPoint x="390" y="320" as="sourcePoint" />
            <mxPoint x="440" y="270" as="targetPoint" />
          </mxGeometry>
        </mxCell>
        <mxCell id="U4N--n8lzwMHP0-4tXsz-33" value="" style="endArrow=classic;html=1;rounded=0;exitX=1;exitY=1;exitDx=0;exitDy=0;entryX=0.5;entryY=0;entryDx=0;entryDy=0;" edge="1" parent="WIyWlLk6GJQsqaUBKTNV-1" source="U4N--n8lzwMHP0-4tXsz-19" target="U4N--n8lzwMHP0-4tXsz-10">
          <mxGeometry width="50" height="50" relative="1" as="geometry">
            <mxPoint x="390" y="320" as="sourcePoint" />
            <mxPoint x="440" y="270" as="targetPoint" />
          </mxGeometry>
        </mxCell>
        <mxCell id="U4N--n8lzwMHP0-4tXsz-34" value="" style="endArrow=classic;html=1;rounded=0;exitX=0.5;exitY=1;exitDx=0;exitDy=0;entryX=0;entryY=0.25;entryDx=0;entryDy=0;" edge="1" parent="WIyWlLk6GJQsqaUBKTNV-1" source="U4N--n8lzwMHP0-4tXsz-7" target="U4N--n8lzwMHP0-4tXsz-11">
          <mxGeometry width="50" height="50" relative="1" as="geometry">
            <mxPoint x="390" y="320" as="sourcePoint" />
            <mxPoint x="350" y="240" as="targetPoint" />
          </mxGeometry>
        </mxCell>
        <mxCell id="U4N--n8lzwMHP0-4tXsz-35" value="" style="endArrow=classic;html=1;rounded=0;exitX=0.5;exitY=1;exitDx=0;exitDy=0;entryX=0.333;entryY=-0.067;entryDx=0;entryDy=0;entryPerimeter=0;" edge="1" parent="WIyWlLk6GJQsqaUBKTNV-1" source="U4N--n8lzwMHP0-4tXsz-8" target="U4N--n8lzwMHP0-4tXsz-11">
          <mxGeometry width="50" height="50" relative="1" as="geometry">
            <mxPoint x="390" y="320" as="sourcePoint" />
            <mxPoint x="440" y="270" as="targetPoint" />
          </mxGeometry>
        </mxCell>
        <mxCell id="U4N--n8lzwMHP0-4tXsz-36" value="" style="endArrow=classic;html=1;rounded=0;exitX=0.5;exitY=1;exitDx=0;exitDy=0;entryX=0.713;entryY=-0.133;entryDx=0;entryDy=0;entryPerimeter=0;" edge="1" parent="WIyWlLk6GJQsqaUBKTNV-1" source="U4N--n8lzwMHP0-4tXsz-9" target="U4N--n8lzwMHP0-4tXsz-11">
          <mxGeometry width="50" height="50" relative="1" as="geometry">
            <mxPoint x="390" y="320" as="sourcePoint" />
            <mxPoint x="440" y="270" as="targetPoint" />
          </mxGeometry>
        </mxCell>
        <mxCell id="U4N--n8lzwMHP0-4tXsz-37" value="" style="endArrow=classic;html=1;rounded=0;exitX=0.5;exitY=1;exitDx=0;exitDy=0;entryX=1;entryY=0.25;entryDx=0;entryDy=0;" edge="1" parent="WIyWlLk6GJQsqaUBKTNV-1" source="U4N--n8lzwMHP0-4tXsz-10" target="U4N--n8lzwMHP0-4tXsz-11">
          <mxGeometry width="50" height="50" relative="1" as="geometry">
            <mxPoint x="390" y="320" as="sourcePoint" />
            <mxPoint x="440" y="270" as="targetPoint" />
          </mxGeometry>
        </mxCell>
        <mxCell id="U4N--n8lzwMHP0-4tXsz-39" value="" style="endArrow=classic;html=1;rounded=0;exitX=0.38;exitY=1;exitDx=0;exitDy=0;exitPerimeter=0;entryX=0.451;entryY=0.02;entryDx=0;entryDy=0;entryPerimeter=0;" edge="1" parent="WIyWlLk6GJQsqaUBKTNV-1" source="U4N--n8lzwMHP0-4tXsz-11" target="U4N--n8lzwMHP0-4tXsz-24">
          <mxGeometry width="50" height="50" relative="1" as="geometry">
            <mxPoint x="390" y="320" as="sourcePoint" />
            <mxPoint x="440" y="270" as="targetPoint" />
          </mxGeometry>
        </mxCell>
        <mxCell id="U4N--n8lzwMHP0-4tXsz-41" value="" style="endArrow=classic;html=1;rounded=0;entryX=0.5;entryY=0;entryDx=0;entryDy=0;exitX=0.607;exitY=1.067;exitDx=0;exitDy=0;exitPerimeter=0;" edge="1" parent="WIyWlLk6GJQsqaUBKTNV-1" source="U4N--n8lzwMHP0-4tXsz-11" target="U4N--n8lzwMHP0-4tXsz-24">
          <mxGeometry width="50" height="50" relative="1" as="geometry">
            <mxPoint x="390" y="320" as="sourcePoint" />
            <mxPoint x="440" y="270" as="targetPoint" />
          </mxGeometry>
        </mxCell>
        <mxCell id="U4N--n8lzwMHP0-4tXsz-42" value="" style="endArrow=classic;html=1;rounded=0;exitX=0;exitY=1;exitDx=0;exitDy=0;" edge="1" parent="WIyWlLk6GJQsqaUBKTNV-1" source="U4N--n8lzwMHP0-4tXsz-24">
          <mxGeometry width="50" height="50" relative="1" as="geometry">
            <mxPoint x="390" y="320" as="sourcePoint" />
            <mxPoint x="130" y="360" as="targetPoint" />
          </mxGeometry>
        </mxCell>
        <mxCell id="U4N--n8lzwMHP0-4tXsz-43" value="" style="endArrow=classic;html=1;rounded=0;exitX=0.25;exitY=1;exitDx=0;exitDy=0;entryX=0.5;entryY=0;entryDx=0;entryDy=0;" edge="1" parent="WIyWlLk6GJQsqaUBKTNV-1" source="U4N--n8lzwMHP0-4tXsz-24" target="U4N--n8lzwMHP0-4tXsz-14">
          <mxGeometry width="50" height="50" relative="1" as="geometry">
            <mxPoint x="390" y="320" as="sourcePoint" />
            <mxPoint x="440" y="270" as="targetPoint" />
          </mxGeometry>
        </mxCell>
        <mxCell id="U4N--n8lzwMHP0-4tXsz-44" value="" style="endArrow=classic;html=1;rounded=0;exitX=0.657;exitY=1.04;exitDx=0;exitDy=0;exitPerimeter=0;entryX=0.5;entryY=0;entryDx=0;entryDy=0;" edge="1" parent="WIyWlLk6GJQsqaUBKTNV-1" source="U4N--n8lzwMHP0-4tXsz-24" target="U4N--n8lzwMHP0-4tXsz-15">
          <mxGeometry width="50" height="50" relative="1" as="geometry">
            <mxPoint x="390" y="320" as="sourcePoint" />
            <mxPoint x="440" y="270" as="targetPoint" />
          </mxGeometry>
        </mxCell>
        <mxCell id="U4N--n8lzwMHP0-4tXsz-45" value="" style="endArrow=classic;html=1;rounded=0;exitX=1;exitY=1;exitDx=0;exitDy=0;entryX=0.57;entryY=-0.133;entryDx=0;entryDy=0;entryPerimeter=0;" edge="1" parent="WIyWlLk6GJQsqaUBKTNV-1" source="U4N--n8lzwMHP0-4tXsz-24" target="U4N--n8lzwMHP0-4tXsz-16">
          <mxGeometry width="50" height="50" relative="1" as="geometry">
            <mxPoint x="390" y="320" as="sourcePoint" />
            <mxPoint x="440" y="270" as="targetPoint" />
          </mxGeometry>
        </mxCell>
        <mxCell id="U4N--n8lzwMHP0-4tXsz-46" value="" style="endArrow=classic;html=1;rounded=0;exitX=0.5;exitY=1;exitDx=0;exitDy=0;entryX=0;entryY=0.25;entryDx=0;entryDy=0;" edge="1" parent="WIyWlLk6GJQsqaUBKTNV-1" source="U4N--n8lzwMHP0-4tXsz-12" target="U4N--n8lzwMHP0-4tXsz-17">
          <mxGeometry width="50" height="50" relative="1" as="geometry">
            <mxPoint x="390" y="320" as="sourcePoint" />
            <mxPoint x="440" y="270" as="targetPoint" />
          </mxGeometry>
        </mxCell>
        <mxCell id="U4N--n8lzwMHP0-4tXsz-47" value="" style="endArrow=classic;html=1;rounded=0;exitX=0.5;exitY=1;exitDx=0;exitDy=0;entryX=0.333;entryY=0;entryDx=0;entryDy=0;entryPerimeter=0;" edge="1" parent="WIyWlLk6GJQsqaUBKTNV-1" source="U4N--n8lzwMHP0-4tXsz-14" target="U4N--n8lzwMHP0-4tXsz-17">
          <mxGeometry width="50" height="50" relative="1" as="geometry">
            <mxPoint x="390" y="320" as="sourcePoint" />
            <mxPoint x="440" y="270" as="targetPoint" />
          </mxGeometry>
        </mxCell>
        <mxCell id="U4N--n8lzwMHP0-4tXsz-48" value="" style="endArrow=classic;html=1;rounded=0;exitX=0.5;exitY=1;exitDx=0;exitDy=0;" edge="1" parent="WIyWlLk6GJQsqaUBKTNV-1" source="U4N--n8lzwMHP0-4tXsz-15">
          <mxGeometry width="50" height="50" relative="1" as="geometry">
            <mxPoint x="390" y="320" as="sourcePoint" />
            <mxPoint x="464" y="420" as="targetPoint" />
          </mxGeometry>
        </mxCell>
        <mxCell id="U4N--n8lzwMHP0-4tXsz-49" value="" style="endArrow=classic;html=1;rounded=0;exitX=0.5;exitY=1;exitDx=0;exitDy=0;entryX=1;entryY=0;entryDx=0;entryDy=0;" edge="1" parent="WIyWlLk6GJQsqaUBKTNV-1" source="U4N--n8lzwMHP0-4tXsz-16" target="U4N--n8lzwMHP0-4tXsz-17">
          <mxGeometry width="50" height="50" relative="1" as="geometry">
            <mxPoint x="390" y="320" as="sourcePoint" />
            <mxPoint x="440" y="270" as="targetPoint" />
          </mxGeometry>
        </mxCell>
        <mxCell id="U4N--n8lzwMHP0-4tXsz-50" value="" style="endArrow=classic;html=1;rounded=0;exitX=0.367;exitY=1.133;exitDx=0;exitDy=0;exitPerimeter=0;entryX=0.359;entryY=0.02;entryDx=0;entryDy=0;entryPerimeter=0;" edge="1" parent="WIyWlLk6GJQsqaUBKTNV-1" source="U4N--n8lzwMHP0-4tXsz-17" target="U4N--n8lzwMHP0-4tXsz-18">
          <mxGeometry width="50" height="50" relative="1" as="geometry">
            <mxPoint x="390" y="320" as="sourcePoint" />
            <mxPoint x="440" y="270" as="targetPoint" />
          </mxGeometry>
        </mxCell>
        <mxCell id="U4N--n8lzwMHP0-4tXsz-51" value="" style="endArrow=classic;html=1;rounded=0;exitX=0.567;exitY=0.967;exitDx=0;exitDy=0;exitPerimeter=0;entryX=0.641;entryY=-0.04;entryDx=0;entryDy=0;entryPerimeter=0;" edge="1" parent="WIyWlLk6GJQsqaUBKTNV-1" source="U4N--n8lzwMHP0-4tXsz-17" target="U4N--n8lzwMHP0-4tXsz-18">
          <mxGeometry width="50" height="50" relative="1" as="geometry">
            <mxPoint x="390" y="320" as="sourcePoint" />
            <mxPoint x="440" y="270" as="targetPoint" />
          </mxGeometry>
        </mxCell>
        <mxCell id="U4N--n8lzwMHP0-4tXsz-52" value="" style="endArrow=classic;html=1;rounded=0;exitX=0;exitY=1;exitDx=0;exitDy=0;entryX=0.438;entryY=0.067;entryDx=0;entryDy=0;entryPerimeter=0;" edge="1" parent="WIyWlLk6GJQsqaUBKTNV-1" source="U4N--n8lzwMHP0-4tXsz-18" target="U4N--n8lzwMHP0-4tXsz-20">
          <mxGeometry width="50" height="50" relative="1" as="geometry">
            <mxPoint x="390" y="320" as="sourcePoint" />
            <mxPoint x="440" y="270" as="targetPoint" />
          </mxGeometry>
        </mxCell>
        <mxCell id="U4N--n8lzwMHP0-4tXsz-53" value="" style="endArrow=classic;html=1;rounded=0;exitX=0.25;exitY=1;exitDx=0;exitDy=0;entryX=0.558;entryY=0;entryDx=0;entryDy=0;entryPerimeter=0;" edge="1" parent="WIyWlLk6GJQsqaUBKTNV-1" source="U4N--n8lzwMHP0-4tXsz-18" target="U4N--n8lzwMHP0-4tXsz-21">
          <mxGeometry width="50" height="50" relative="1" as="geometry">
            <mxPoint x="390" y="320" as="sourcePoint" />
            <mxPoint x="440" y="270" as="targetPoint" />
          </mxGeometry>
        </mxCell>
        <mxCell id="U4N--n8lzwMHP0-4tXsz-54" value="" style="endArrow=classic;html=1;rounded=0;exitX=0.689;exitY=1.06;exitDx=0;exitDy=0;exitPerimeter=0;entryX=0.5;entryY=0;entryDx=0;entryDy=0;" edge="1" parent="WIyWlLk6GJQsqaUBKTNV-1" source="U4N--n8lzwMHP0-4tXsz-18" target="U4N--n8lzwMHP0-4tXsz-22">
          <mxGeometry width="50" height="50" relative="1" as="geometry">
            <mxPoint x="390" y="320" as="sourcePoint" />
            <mxPoint x="440" y="270" as="targetPoint" />
          </mxGeometry>
        </mxCell>
        <mxCell id="U4N--n8lzwMHP0-4tXsz-55" value="" style="endArrow=classic;html=1;rounded=0;exitX=1;exitY=1;exitDx=0;exitDy=0;entryX=0.5;entryY=0;entryDx=0;entryDy=0;" edge="1" parent="WIyWlLk6GJQsqaUBKTNV-1" source="U4N--n8lzwMHP0-4tXsz-18" target="U4N--n8lzwMHP0-4tXsz-23">
          <mxGeometry width="50" height="50" relative="1" as="geometry">
            <mxPoint x="390" y="320" as="sourcePoint" />
            <mxPoint x="440" y="270" as="targetPoint" />
          </mxGeometry>
        </mxCell>
      </root>
    </mxGraphModel>
  </diagram>
</mxfile>
